<svg width="190" height="70" viewBox="0 0 190 70" fill="none" xmlns="http://www.w3.org/2000/svg">
<g clip-path="url(#clip0_14030_6765)">
<path d="M83.3601 45.934H72.2425C69.8281 45.934 67.897 45.2242 66.4511 43.8024C65.0314 42.3826 64.3195 40.7603 64.3195 38.9355V30.9101C64.3195 29.0392 65.0173 27.4048 66.4171 26.0091C67.8368 24.6114 69.778 23.9115 72.2405 23.9115H83.3581C85.8206 23.9115 87.7497 24.6114 89.1434 26.0091C90.5412 27.3828 91.241 29.0051 91.241 30.876V39.0056C91.241 40.8044 90.5412 42.4047 89.1434 43.8024C87.7237 45.2222 85.7945 45.934 83.3581 45.934H83.3601ZM81.6876 27.2183H73.909C72.5353 27.2183 71.3742 27.6334 70.4297 28.4636C69.4832 29.3159 68.9859 30.4168 68.9378 31.7644V37.9809C68.9378 39.3285 69.4351 40.4194 70.4297 41.2476C71.3762 42.0758 72.5373 42.4889 73.909 42.4889H81.6876C83.1335 42.4668 84.3046 42.0537 85.205 41.2476C86.1736 40.4174 86.6588 39.3044 86.6588 37.9087V31.8005C86.6368 30.3807 86.1515 29.2678 85.205 28.4616C84.2805 27.6314 83.1074 27.2163 81.6876 27.2163V27.2183Z" fill="#BEDD7D"/>
<path d="M121.832 23.3821C121.975 23.3821 122.093 23.4363 122.187 23.5405C122.281 23.6468 122.33 23.7712 122.33 23.9115V41.033C122.33 42.3806 121.89 43.5357 121.014 44.4962C120.14 45.4548 119.087 45.934 117.856 45.934H116.649C115.512 45.934 114.453 45.6072 113.47 44.9554C112.485 44.3037 111.733 43.4334 111.214 42.3445L104.362 28.1027C104.219 27.7718 103.971 27.6053 103.614 27.6053H103.259C102.952 27.6053 102.697 27.7176 102.495 27.9442C102.294 28.1709 102.194 28.4376 102.194 28.7464V45.3986C102.194 45.541 102.146 45.6653 102.052 45.7756C101.957 45.8819 101.839 45.934 101.697 45.934H98.8232C98.6808 45.934 98.5625 45.8819 98.4682 45.7756C98.374 45.6673 98.3258 45.541 98.3258 45.3986V28.2831C98.3258 26.9336 98.763 25.7785 99.6373 24.8199C100.516 23.8614 101.568 23.3821 102.8 23.3821H103.828C104.895 23.3821 105.884 23.6789 106.794 24.2725C107.705 24.8641 108.409 25.6662 108.908 26.6829L115.977 40.9628C116.141 41.2697 116.388 41.4221 116.721 41.4221H117.431C117.715 41.4221 117.958 41.3118 118.159 41.0872C118.361 40.8606 118.463 40.5939 118.463 40.285V23.9115C118.463 23.7692 118.509 23.6468 118.606 23.5405C118.7 23.4343 118.818 23.3821 118.961 23.3821H121.834H121.832Z" fill="#BEDD7D"/>
<path d="M149.817 45.934H138.699C136.285 45.934 134.354 45.2242 132.908 43.8024C131.488 42.3826 130.776 40.7603 130.776 38.9355V30.9101C130.776 29.0392 131.474 27.4048 132.874 26.0091C134.293 24.6114 136.235 23.9115 138.697 23.9115H149.815C152.277 23.9115 154.206 24.6114 155.6 26.0091C156.998 27.3828 157.698 29.0051 157.698 30.876V39.0056C157.698 40.8044 156.998 42.4047 155.6 43.8024C154.18 45.2222 152.251 45.934 149.815 45.934H149.817ZM148.144 27.2183H140.366C138.992 27.2183 137.831 27.6334 136.886 28.4636C135.94 29.3159 135.442 30.4168 135.394 31.7644V37.9809C135.394 39.3285 135.892 40.4194 136.886 41.2476C137.833 42.0758 138.994 42.4889 140.366 42.4889H148.144C149.59 42.4668 150.761 42.0537 151.662 41.2476C152.63 40.4174 153.115 39.3044 153.115 37.9087V31.8005C153.093 30.3807 152.608 29.2678 151.662 28.4616C150.737 27.6314 149.564 27.2163 148.144 27.2163V27.2183Z" fill="#BEDD7D"/>
<path d="M183.711 40.285L188.257 45.2944C188.373 45.4107 188.403 45.549 188.345 45.7034C188.287 45.8579 188.175 45.9341 188.006 45.9341H184.066C183.639 45.9341 183.26 45.7696 182.929 45.4367L178.236 40.4655C178.024 40.251 177.741 40.1206 177.384 40.0725H169.146C169.004 40.0725 168.885 40.1266 168.791 40.2349C168.697 40.3412 168.649 40.4756 168.649 40.64V45.3986C168.649 45.5651 168.601 45.7034 168.506 45.8117C168.412 45.918 168.294 45.9702 168.151 45.9702H165.278C165.135 45.9702 165.017 45.918 164.923 45.8117C164.829 45.7034 164.78 45.5651 164.78 45.3986V40.251C164.78 39.138 165.169 38.1855 165.95 37.3934C166.732 36.5993 167.692 36.2022 168.827 36.2022H182.393C182.891 36.2022 183.324 36.0378 183.689 35.7049C184.056 35.374 184.328 34.9469 184.507 34.4255C184.685 33.9061 184.81 33.4268 184.878 32.9877C184.95 32.5485 184.986 32.1394 184.986 31.7584C184.986 30.3867 184.778 29.2959 184.364 28.4917C183.949 27.6876 183.352 27.2845 182.572 27.2845H165.418C165.228 27.2845 165.073 27.2263 164.955 27.108C164.839 26.9897 164.778 26.8353 164.778 26.6448V23.9456C164.778 23.8033 164.825 23.6809 164.921 23.5746C165.015 23.4664 165.133 23.4122 165.276 23.4122H182.927C184.631 23.4122 186.033 24.1762 187.134 25.7063C188.233 27.2324 188.784 29.2517 188.784 31.7604C188.784 32.4021 188.714 33.1 188.572 33.858C188.429 34.616 188.193 35.4322 187.862 36.3105C187.529 37.1848 187.009 37.9589 186.3 38.6327C185.59 39.3064 184.76 39.7516 183.813 39.9662C183.622 40.0364 183.588 40.1427 183.709 40.283L183.711 40.285Z" fill="#BEDD7D"/>
<path d="M68.7412 54.9841C68.8014 54.9841 68.8515 55.0042 68.8916 55.0423C68.9297 55.0824 68.9498 55.1285 68.9498 55.1806V56.2134C68.9498 56.2675 68.9297 56.3116 68.8916 56.3517C68.8515 56.3918 68.8014 56.4099 68.7412 56.4099H66.778C66.7239 56.4099 66.6798 56.3918 66.6437 56.3517C66.6096 56.3136 66.5935 56.2675 66.5935 56.2134V55.1806C66.5935 55.1285 66.6096 55.0824 66.6437 55.0423C66.6798 55.0042 66.7239 54.9841 66.778 54.9841H68.7412ZM75.2545 54.9841C75.3067 54.9841 75.3508 55.0042 75.3849 55.0423C75.421 55.0824 75.439 55.1285 75.439 55.1806V56.2134C75.439 56.2675 75.421 56.3116 75.3849 56.3517C75.3508 56.3918 75.3067 56.4099 75.2545 56.4099H71.9578C71.9137 56.4099 71.8715 56.4299 71.8314 56.468C71.7913 56.5061 71.7733 56.5583 71.7733 56.6184V63.0816C71.7733 63.1438 71.7552 63.1939 71.7191 63.232C71.6851 63.2721 71.6409 63.2902 71.5888 63.2902H70.544C70.4899 63.2902 70.4458 63.2721 70.4097 63.232C70.3756 63.1939 70.3595 63.1438 70.3595 63.0816V56.5563C70.3595 56.1191 70.5139 55.7481 70.8228 55.4453C71.1316 55.1385 71.5006 54.9861 71.9297 54.9861H75.2505L75.2545 54.9841Z" fill="#BEDD7D"/>
<path d="M93.2965 61.2087L94.9669 63.0556C95.011 63.0977 95.0231 63.1478 95.001 63.206C94.9789 63.2621 94.9368 63.2902 94.8747 63.2902H93.4248C93.2684 63.2902 93.13 63.23 93.0077 63.1057L91.2771 61.2748C91.1989 61.1966 91.0946 61.1485 90.9643 61.1284H87.9302C87.8761 61.1284 87.8319 61.1485 87.7958 61.1906C87.7618 61.2307 87.7457 61.2788 87.7457 61.337V63.0917C87.7457 63.1538 87.7277 63.204 87.6916 63.2421C87.6575 63.2822 87.6134 63.3002 87.5612 63.3002H86.5044C86.4503 63.3002 86.4062 63.2822 86.3701 63.2421C86.336 63.204 86.3199 63.1538 86.3199 63.0917V61.1946C86.3199 60.7855 86.4623 60.4346 86.7511 60.1418C87.0378 59.849 87.3908 59.7027 87.8119 59.7027H92.8092C92.9937 59.7027 93.1521 59.6425 93.2864 59.5182C93.4228 59.3958 93.5231 59.2394 93.5872 59.0509C93.6534 58.8584 93.6995 58.6819 93.7256 58.5195C93.7517 58.3591 93.7637 58.2087 93.7637 58.0683C93.7637 57.561 93.6855 57.1599 93.5331 56.8651C93.3827 56.5683 93.1621 56.4179 92.8733 56.4179H86.5566C86.4864 56.4179 86.4282 56.3979 86.3861 56.3558C86.344 56.3116 86.3239 56.2535 86.3239 56.1853V55.1907C86.3239 55.1385 86.34 55.0924 86.3741 55.0523C86.4102 55.0142 86.4543 54.9941 86.5084 54.9941H93.0097C93.6374 54.9941 94.1507 55.2769 94.5558 55.8384C94.9629 56.4019 95.1654 57.1459 95.1654 58.0703C95.1654 58.3049 95.1374 58.5616 95.0852 58.8424C95.0351 59.1211 94.9488 59.4219 94.8265 59.7448C94.7042 60.0656 94.5117 60.3504 94.249 60.601C93.9863 60.8497 93.6815 61.0121 93.3346 61.0903C93.2644 61.1164 93.2523 61.1545 93.2965 61.2067V61.2087Z" fill="#BEDD7D"/>
<path d="M116.227 63.1177C116.243 63.1618 116.241 63.2039 116.219 63.238C116.199 63.2721 116.167 63.2882 116.123 63.2882H114.816C114.667 63.2882 114.567 63.216 114.515 63.0676L112.355 57.3765C112.251 57.0977 112.086 56.8771 111.858 56.7127C111.631 56.5463 111.379 56.462 111.102 56.462C110.825 56.462 110.568 56.5463 110.338 56.7127C110.105 56.8771 109.939 57.0997 109.832 57.3765L107.727 63.0676C107.665 63.216 107.564 63.2882 107.426 63.2882H106.157C106.115 63.2882 106.082 63.2701 106.06 63.23C106.038 63.1919 106.034 63.1538 106.052 63.1177L108.643 56.7889C108.958 56.0409 109.467 55.5135 110.173 55.2047C110.881 54.8979 111.615 54.9159 112.375 55.2588C113.019 55.5636 113.492 56.1031 113.799 56.8791L116.231 63.1157L116.227 63.1177Z" fill="#BEDD7D"/>
<path d="M132.045 54.9841C133.136 54.9841 134.065 55.3892 134.833 56.1953C135.601 57.0015 135.986 57.974 135.986 59.1151V59.1572C135.986 60.3002 135.601 61.2748 134.833 62.0809C134.067 62.8871 133.138 63.2882 132.045 63.2882H127.152C127.102 63.2882 127.056 63.2701 127.014 63.23C126.974 63.1919 126.956 63.1458 126.956 63.0916V62.0589C126.956 62.0068 126.974 61.9606 127.014 61.9205C127.056 61.8824 127.102 61.8624 127.152 61.8624H131.903C132.661 61.8624 133.283 61.5977 133.77 61.0643C134.259 60.5328 134.506 59.8851 134.506 59.1251C134.506 58.3651 134.251 57.7354 133.742 57.204C133.233 56.6726 132.619 56.4059 131.903 56.4059H127.152C127.102 56.4059 127.056 56.3858 127.014 56.3437C126.974 56.2996 126.956 56.2515 126.956 56.1973V55.1786C126.956 55.1265 126.974 55.0803 127.014 55.0402C127.056 55.0021 127.102 54.9821 127.152 54.9821H132.045V54.9841Z" fill="#BEDD7D"/>
<path d="M148.623 54.9841C148.676 54.9841 148.72 55.0042 148.754 55.0423C148.79 55.0824 148.808 55.1285 148.808 55.1806V63.0936C148.808 63.1478 148.79 63.1919 148.754 63.232C148.72 63.2721 148.676 63.2902 148.623 63.2902H147.563C147.509 63.2902 147.464 63.2721 147.428 63.232C147.394 63.1939 147.378 63.1478 147.378 63.0936V55.1806C147.378 55.1285 147.394 55.0824 147.428 55.0423C147.464 55.0042 147.509 54.9841 147.563 54.9841H148.623Z" fill="#BEDD7D"/>
<path d="M169.2 54.9841C169.252 54.9841 169.296 55.0042 169.33 55.0423C169.367 55.0824 169.385 55.1285 169.385 55.1806V61.4854C169.385 61.9807 169.222 62.4058 168.899 62.7588C168.577 63.1137 168.187 63.2902 167.734 63.2902H167.291C166.87 63.2902 166.479 63.1719 166.118 62.9312C165.759 62.6926 165.482 62.3717 165.29 61.9707L162.763 56.7227C162.713 56.6004 162.623 56.5382 162.492 56.5382H162.358C162.246 56.5382 162.153 56.5803 162.077 56.6646C162.001 56.7488 161.965 56.847 161.965 56.9614V63.0936C161.965 63.1478 161.947 63.1919 161.911 63.232C161.877 63.2721 161.835 63.2902 161.784 63.2902H160.724C160.669 63.2902 160.625 63.2721 160.589 63.232C160.555 63.1939 160.539 63.1478 160.539 63.0936V56.7889C160.539 56.2916 160.7 55.8664 161.024 55.5155C161.347 55.1626 161.736 54.9841 162.19 54.9841H162.567C162.96 54.9841 163.323 55.0924 163.657 55.311C163.994 55.5275 164.255 55.8243 164.44 56.2013L167.042 61.4613C167.103 61.5736 167.195 61.6278 167.319 61.6278H167.582C167.684 61.6278 167.772 61.5876 167.845 61.5074C167.921 61.4232 167.957 61.3249 167.957 61.2106V55.1826C167.957 55.1305 167.973 55.0844 168.007 55.0443C168.043 55.0062 168.087 54.9861 168.141 54.9861H169.202L169.2 54.9841Z" fill="#BEDD7D"/>
<path d="M189.49 58.8825V59.4299C189.49 60.4947 189.111 61.4052 188.357 62.1672C187.605 62.9252 186.693 63.3042 185.62 63.3042H184.663C183.59 63.3042 182.676 62.9252 181.922 62.1672C181.166 61.4072 180.789 60.4947 180.789 59.4299V58.8403C180.789 57.7775 181.166 56.8671 181.922 56.1071C182.676 55.3491 183.59 54.9701 184.663 54.9701H185.461C185.53 54.9701 185.59 54.9941 185.638 55.0402C185.688 55.0884 185.714 55.1465 185.714 55.2167V56.0269C185.714 56.0971 185.688 56.1572 185.638 56.2074C185.588 56.2575 185.532 56.2775 185.461 56.2775H184.884C184.142 56.2775 183.514 56.5523 182.995 57.0997C182.477 57.6492 182.217 58.3109 182.217 59.089V59.2314C182.217 60.0095 182.475 60.6752 182.995 61.2287C183.512 61.7842 184.142 62.0609 184.884 62.0609H185.393C185.971 62.0609 186.488 61.8824 186.951 61.5255C187.413 61.1665 187.733 60.7093 187.908 60.1518H185.197C185.118 60.1518 185.08 60.0716 185.08 59.9132V58.9306C185.08 58.7842 185.118 58.71 185.197 58.71H189.32C189.362 58.71 189.4 58.728 189.432 58.7641C189.468 58.7982 189.486 58.8363 189.486 58.8805L189.49 58.8825Z" fill="#BEDD7D"/>
<path d="M52.9072 32.9736C52.9372 32.8112 52.8911 32.7049 52.833 32.5605C52.2895 31.237 50.968 29.364 50.23 28.0385C49.3698 26.4924 48.5616 23.9196 46.9012 23.1254C44.2582 21.8621 41.3224 22.4376 38.6793 21.846C36.658 21.3948 36.1366 20.326 35.1419 18.6776L24.9629 0L37.7168 4.22122C38.6192 4.60423 39.0423 5.66305 39.5176 6.47119C42.1606 10.9631 44.4407 15.6957 46.9774 20.2498C48.2588 22.2551 51.0643 21.1903 52.8269 21.8059C53.1799 21.9283 53.4506 22.219 53.6792 22.4918C54.6157 23.6127 56.0355 26.4382 56.8436 27.85C57.8282 29.5706 58.9372 31.4957 59.8275 33.2504C60.5755 34.7243 60.6678 34.632 59.9178 36.142C58.0568 39.888 55.7347 43.4495 53.6812 47.0911C52.2554 48.7074 48.8283 47.0911 47.1218 49.1947L38.3104 65.115L24.9649 69.5809L36.285 49.1145C38.0557 46.9848 41.8097 47.6847 44.4186 47.1874C46.5663 46.7783 47.6592 46.1566 48.8303 44.3338C50.2862 42.0678 51.355 39.531 52.6304 37.1648H35.0958C33.5357 39.6975 32.2503 42.3946 30.7182 44.9434C30.2289 45.7576 29.2844 47.6867 28.4361 47.9715C26.6213 48.5771 24.0505 47.7228 22.6728 49.4735C19.6488 54.7274 17.0238 60.2341 13.8614 65.3938L0.511931 70C1.34414 68.2754 2.22849 66.5589 3.14092 64.8764C5.66964 60.218 8.33873 54.942 11.1041 50.4841C11.6916 49.5376 12.3233 48.559 13.4423 48.2101C16.6247 47.2215 21.4435 48.4888 23.8399 45.4748L29.5431 35.0211C28.4241 33.134 27.4555 31.1588 26.3847 29.2437C25.6367 27.9021 24.255 24.9122 23.2684 23.9777C20.104 20.9777 12.7825 24.3948 10.8253 19.2351L0.509926 0.348927C0.509926 0.188501 0.814736 0.306815 0.939066 0.338901C2.7198 0.810153 4.71309 1.59624 6.48781 2.19583C8.44902 2.85759 11.5152 3.67777 13.2658 4.49996C14.1903 4.93311 14.5773 5.91171 15.0666 6.74994C17.7638 11.3562 20.0859 16.2071 22.725 20.8494C23.9622 22.1328 25.8011 21.7678 27.4054 21.9363C28.4361 22.0446 28.7951 22.1489 29.4107 23.0051L35.0918 32.9716H52.9072V32.9736Z" fill="#BEDD7D"/>
</g>
<defs>
<clipPath id="clip0_14030_6765">
<rect width="188.98" height="70" fill="white" transform="translate(0.509926)"/>
</clipPath>
</defs>
</svg>
