<svg width="505" height="188" viewBox="0 0 505 188" fill="none" xmlns="http://www.w3.org/2000/svg">
<path d="M221.206 123.128H191.451C184.989 123.128 179.821 121.237 175.951 117.45C172.151 113.668 170.246 109.347 170.246 104.486V83.1087C170.246 78.125 172.114 73.7716 175.86 70.0538C179.66 66.3307 184.855 64.4665 191.446 64.4665H221.2C227.791 64.4665 232.954 66.3307 236.684 70.0538C240.425 73.7128 242.298 78.0342 242.298 83.0179V104.673C242.298 109.464 240.425 113.727 236.684 117.45C232.884 121.232 227.721 123.128 221.2 123.128H221.206ZM216.73 73.2748H195.911C192.235 73.2748 189.127 74.3805 186.599 76.592C184.066 78.8621 182.735 81.7947 182.606 85.3842V101.943C182.606 105.533 183.937 108.439 186.599 110.645C189.133 112.851 192.24 113.951 195.911 113.951H216.73C220.599 113.892 223.733 112.792 226.143 110.645C228.735 108.433 230.034 105.469 230.034 101.751V85.4804C229.975 81.6985 228.676 78.7339 226.143 76.5866C223.669 74.3752 220.529 73.2695 216.73 73.2695V73.2748Z" fill="white"/>
<path d="M323.868 63.1913C324.246 63.1913 324.561 63.3352 324.811 63.6123C325.061 63.8948 325.189 64.2252 325.189 64.5983V110.103C325.189 113.684 324.023 116.754 321.695 119.307C319.372 121.854 316.576 123.128 313.305 123.128H310.098C307.078 123.128 304.265 122.259 301.655 120.527C299.04 118.795 297.042 116.482 295.662 113.588L277.461 75.7372C277.082 74.8578 276.422 74.4155 275.474 74.4155H274.531C273.716 74.4155 273.039 74.7139 272.501 75.3162C271.969 75.9184 271.702 76.6273 271.702 77.448V121.705C271.702 122.084 271.574 122.414 271.324 122.707C271.074 122.99 270.759 123.128 270.381 123.128H262.748C262.37 123.128 262.055 122.99 261.805 122.707C261.555 122.419 261.427 122.084 261.427 121.705V76.2169C261.427 72.63 262.588 69.5602 264.91 67.0126C267.244 64.4651 270.04 63.1913 273.311 63.1913H276.044C278.878 63.1913 281.504 63.9801 283.922 65.5576C286.34 67.1299 288.21 69.2617 289.537 71.9638L308.314 109.916C308.751 110.731 309.406 111.137 310.29 111.137H312.176C312.932 111.137 313.577 110.843 314.109 110.246C314.647 109.644 314.919 108.935 314.919 108.115V64.5983C314.919 64.2199 315.042 63.8948 315.297 63.6123C315.548 63.3299 315.862 63.1913 316.24 63.1913H323.874H323.868Z" fill="white"/>
<path d="M399.103 123.128H369.349C362.887 123.128 357.719 121.237 353.849 117.45C350.049 113.668 348.144 109.347 348.144 104.486V83.1087C348.144 78.125 350.012 73.7716 353.758 70.0538C357.558 66.3307 362.753 64.4665 369.343 64.4665H399.098C405.689 64.4665 410.852 66.3307 414.582 70.0538C418.323 73.7128 420.196 78.0342 420.196 83.0179V104.673C420.196 109.464 418.323 113.727 414.582 117.45C410.782 121.232 405.619 123.128 399.098 123.128H399.103ZM394.627 73.2748H373.809C370.132 73.2748 367.025 74.3805 364.497 76.592C361.964 78.8621 360.633 81.7947 360.504 85.3842V101.943C360.504 105.533 361.835 108.439 364.497 110.645C367.03 112.851 370.138 113.951 373.809 113.951H394.627C398.497 113.892 401.631 112.792 404.041 110.645C406.633 108.433 407.932 105.469 407.932 101.751V85.4804C407.873 81.6985 406.574 78.7339 404.041 76.5866C401.567 74.3752 398.427 73.2695 394.627 73.2695V73.2748Z" fill="white"/>
<path d="M489.476 108.023L501.672 121.333C501.984 121.642 502.065 122.009 501.909 122.42C501.753 122.83 501.452 123.032 501 123.032H490.429C489.283 123.032 488.266 122.595 487.378 121.711L474.79 108.502C474.22 107.932 473.461 107.586 472.504 107.458H450.404C450.022 107.458 449.704 107.602 449.452 107.89C449.199 108.172 449.07 108.529 449.07 108.966V121.61C449.07 122.052 448.94 122.419 448.688 122.707C448.435 122.99 448.117 123.128 447.735 123.128H440.026C439.644 123.128 439.327 122.99 439.074 122.707C438.821 122.419 438.692 122.052 438.692 121.61V107.932C438.692 104.975 439.736 102.444 441.829 100.339C443.927 98.2295 446.503 97.1745 449.548 97.1745H485.942C487.276 97.1745 488.438 96.7376 489.417 95.8531C490.402 94.974 491.133 93.8391 491.612 92.4537C492.091 91.0737 492.425 89.8003 492.607 88.6334C492.801 87.4665 492.898 86.3796 492.898 85.3672C492.898 81.7227 492.338 78.8242 491.23 76.6876C490.117 74.551 488.513 73.48 486.421 73.48H440.403C439.892 73.48 439.478 73.3255 439.16 73.0111C438.848 72.6968 438.687 72.2865 438.687 71.7803V64.6086C438.687 64.2303 438.811 63.9053 439.069 63.6229C439.322 63.3351 439.639 63.1913 440.021 63.1913H487.373C491.946 63.1913 495.706 65.2213 498.66 69.2867C501.608 73.3415 503.087 78.707 503.087 85.3726C503.087 87.0776 502.899 88.9318 502.517 90.9459C502.135 92.9599 501.5 95.1285 500.612 97.4622C499.719 99.7853 498.326 101.842 496.422 103.632C494.517 105.423 492.29 106.605 489.751 107.176C489.24 107.362 489.148 107.644 489.471 108.017L489.476 108.023Z" fill="white"/>
<path d="M182.351 147.358C182.511 147.358 182.645 147.412 182.752 147.514C182.853 147.622 182.907 147.746 182.907 147.886V150.661C182.907 150.806 182.853 150.925 182.752 151.033C182.645 151.14 182.511 151.189 182.351 151.189H177.114C176.97 151.189 176.852 151.14 176.756 151.033C176.665 150.93 176.622 150.806 176.622 150.661V147.886C176.622 147.746 176.665 147.622 176.756 147.514C176.852 147.412 176.97 147.358 177.114 147.358H182.351ZM199.723 147.358C199.862 147.358 199.979 147.412 200.07 147.514C200.166 147.622 200.215 147.746 200.215 147.886V150.661C200.215 150.806 200.166 150.925 200.07 151.033C199.979 151.14 199.862 151.189 199.723 151.189H190.93C190.812 151.189 190.7 151.243 190.593 151.345C190.486 151.447 190.438 151.587 190.438 151.749V169.114C190.438 169.282 190.389 169.416 190.293 169.519C190.202 169.626 190.085 169.675 189.946 169.675H187.159C187.015 169.675 186.897 169.626 186.801 169.519C186.71 169.416 186.667 169.282 186.667 169.114V151.582C186.667 150.407 187.079 149.411 187.902 148.597C188.726 147.773 189.71 147.363 190.855 147.363H199.712L199.723 147.358Z" fill="white"/>
<path d="M248.018 164.055L252.594 169.017C252.715 169.131 252.748 169.265 252.687 169.422C252.627 169.572 252.511 169.648 252.341 169.648H248.37C247.941 169.648 247.562 169.486 247.227 169.152L242.487 164.233C242.272 164.023 241.987 163.894 241.63 163.84H233.319C233.17 163.84 233.049 163.894 232.951 164.007C232.857 164.114 232.813 164.244 232.813 164.4V169.114C232.813 169.282 232.764 169.416 232.665 169.519C232.572 169.626 232.451 169.675 232.308 169.675H229.413C229.265 169.675 229.144 169.626 229.045 169.519C228.952 169.416 228.908 169.282 228.908 169.114V164.017C228.908 162.918 229.298 161.975 230.089 161.189C230.874 160.402 231.841 160.009 232.995 160.009H246.683C247.189 160.009 247.623 159.847 247.991 159.513C248.364 159.184 248.639 158.764 248.815 158.258C248.996 157.741 249.122 157.266 249.194 156.83C249.265 156.399 249.298 155.995 249.298 155.618C249.298 154.255 249.084 153.177 248.666 152.385C248.254 151.587 247.65 151.183 246.859 151.183H229.556C229.364 151.183 229.204 151.129 229.089 151.016C228.974 150.898 228.919 150.742 228.919 150.558V147.886C228.919 147.746 228.963 147.622 229.056 147.514C229.155 147.412 229.276 147.358 229.424 147.358H247.233C248.952 147.358 250.358 148.118 251.468 149.626C252.583 151.14 253.138 153.139 253.138 155.623C253.138 156.253 253.061 156.943 252.918 157.697C252.781 158.446 252.544 159.255 252.209 160.122C251.874 160.984 251.347 161.749 250.627 162.423C249.908 163.091 249.073 163.527 248.122 163.737C247.93 163.807 247.897 163.91 248.018 164.05V164.055Z" fill="white"/>
<path d="M309.22 169.217C309.264 169.335 309.258 169.448 309.199 169.54C309.145 169.632 309.059 169.675 308.94 169.675H305.424C305.025 169.675 304.756 169.481 304.616 169.082L298.808 153.781C298.528 153.032 298.086 152.439 297.471 151.997C296.862 151.549 296.182 151.323 295.438 151.323C294.694 151.323 294.004 151.549 293.384 151.997C292.759 152.439 292.311 153.037 292.025 153.781L286.364 169.082C286.196 169.481 285.927 169.675 285.555 169.675H282.142C282.028 169.675 281.942 169.626 281.883 169.518C281.824 169.416 281.813 169.314 281.861 169.217L288.828 152.201C289.674 150.19 291.044 148.772 292.942 147.942C294.845 147.117 296.819 147.166 298.862 148.088C300.593 148.907 301.866 150.358 302.691 152.444L309.231 169.211L309.22 169.217Z" fill="white"/>
<path d="M351.598 147.363C354.525 147.363 357.017 148.452 359.078 150.618C361.138 152.784 362.172 155.397 362.172 158.462V158.576C362.172 161.647 361.138 164.265 359.078 166.431C357.022 168.597 354.531 169.675 351.598 169.675H338.469C338.335 169.675 338.211 169.626 338.098 169.519C337.99 169.416 337.942 169.292 337.942 169.147V166.372C337.942 166.232 337.99 166.108 338.098 166C338.211 165.898 338.335 165.844 338.469 165.844H351.216C353.25 165.844 354.918 165.133 356.226 163.7C357.539 162.272 358.201 160.531 358.201 158.489C358.201 156.447 357.517 154.756 356.15 153.328C354.784 151.9 353.137 151.183 351.216 151.183H338.469C338.335 151.183 338.211 151.129 338.098 151.016C337.99 150.898 337.942 150.768 337.942 150.623V147.886C337.942 147.746 337.99 147.622 338.098 147.514C338.211 147.412 338.335 147.358 338.469 147.358H351.598V147.363Z" fill="white"/>
<path d="M396.027 147.358C396.19 147.358 396.328 147.412 396.434 147.514C396.547 147.622 396.603 147.746 396.603 147.886V169.147C396.603 169.292 396.547 169.411 396.434 169.519C396.328 169.626 396.19 169.675 396.027 169.675H392.716C392.547 169.675 392.409 169.626 392.297 169.519C392.19 169.416 392.14 169.292 392.14 169.147V147.886C392.14 147.746 392.19 147.622 392.297 147.514C392.409 147.412 392.547 147.358 392.716 147.358H396.027Z" fill="white"/>
<path d="M450.947 147.358C451.086 147.358 451.204 147.412 451.295 147.514C451.391 147.622 451.439 147.746 451.439 147.886V164.826C451.439 166.156 451.006 167.299 450.145 168.247C449.284 169.201 448.246 169.675 447.038 169.675H445.855C444.732 169.675 443.689 169.357 442.727 168.71C441.769 168.069 441.031 167.207 440.518 166.13L433.779 152.029C433.645 151.701 433.404 151.534 433.057 151.534H432.698C432.399 151.534 432.153 151.647 431.949 151.873C431.746 152.099 431.65 152.363 431.65 152.67V169.147C431.65 169.292 431.602 169.411 431.505 169.519C431.415 169.626 431.302 169.675 431.169 169.675H428.339C428.195 169.675 428.077 169.626 427.981 169.519C427.89 169.416 427.847 169.292 427.847 169.147V152.207C427.847 150.871 428.275 149.729 429.141 148.786C430.003 147.837 431.04 147.358 432.249 147.358H433.254C434.303 147.358 435.271 147.649 436.164 148.236C437.063 148.818 437.758 149.615 438.25 150.628L445.192 164.761C445.353 165.063 445.599 165.208 445.93 165.208H446.631C446.904 165.208 447.139 165.1 447.332 164.885C447.535 164.659 447.631 164.395 447.631 164.088V147.891C447.631 147.751 447.674 147.627 447.765 147.52C447.861 147.417 447.979 147.363 448.123 147.363H450.953L450.947 147.358Z" fill="white"/>
<path d="M505 157.834V159.3C505 162.152 503.972 164.59 501.928 166.63C499.889 168.66 497.415 169.675 494.506 169.675H491.913C489.004 169.675 486.524 168.66 484.48 166.63C482.43 164.595 481.408 162.152 481.408 159.3V157.722C481.408 154.876 482.43 152.438 484.48 150.403C486.524 148.373 489.004 147.358 491.913 147.358H494.077C494.261 147.358 494.425 147.422 494.555 147.546C494.691 147.675 494.762 147.83 494.762 148.018V150.188C494.762 150.376 494.691 150.537 494.555 150.671C494.419 150.805 494.267 150.859 494.077 150.859H492.511C490.499 150.859 488.797 151.595 487.389 153.061C485.986 154.532 485.279 156.304 485.279 158.387V158.769C485.279 160.852 485.98 162.635 487.389 164.117C488.792 165.605 490.499 166.346 492.511 166.346H493.892C495.458 166.346 496.86 165.868 498.116 164.912C499.367 163.951 500.237 162.726 500.71 161.233H493.359C493.147 161.233 493.043 161.019 493.043 160.594V157.963C493.043 157.571 493.147 157.373 493.359 157.373H504.538C504.652 157.373 504.755 157.421 504.842 157.518C504.94 157.609 504.989 157.711 504.989 157.829L505 157.834Z" fill="white"/>
<path d="M139.936 88.7078C140.016 88.2743 139.893 87.9907 139.738 87.6053C138.286 84.073 134.757 79.0741 132.786 75.5364C130.489 71.41 128.33 64.5433 123.896 62.4239C116.837 59.0521 108.997 60.5881 101.938 59.0092C96.5395 57.805 95.1471 54.9524 92.4907 50.553L65.3058 0.703857L99.3673 11.97C101.777 12.9922 102.907 15.8181 104.177 17.975C111.235 29.9636 117.325 42.5945 124.099 54.749C127.522 60.1011 135.014 57.2591 139.722 58.9022C140.664 59.2287 141.387 60.0047 141.998 60.7326C144.499 63.7244 148.29 71.2655 150.449 75.0333C153.078 79.6254 156.04 84.7634 158.418 89.4464C160.415 93.3802 160.662 93.134 158.659 97.1641C153.689 107.162 147.487 116.667 142.003 126.386C138.195 130.7 129.043 126.386 124.485 132.001L100.953 174.491L65.3112 186.41L95.5434 131.787C100.272 126.103 110.298 127.971 117.266 126.643C123.001 125.551 125.92 123.892 129.048 119.027C132.936 112.979 135.791 106.209 139.197 99.8937H92.3676C88.2009 106.653 84.768 113.852 80.6763 120.654C79.3696 122.827 76.8471 127.976 74.5817 128.736C69.7349 130.352 62.869 128.072 59.1898 132.745C51.1136 146.767 44.1031 161.464 35.6574 175.235L0.00529454 187.528C2.22786 182.926 4.58967 178.344 7.02645 173.854C13.7798 161.421 20.9081 147.34 28.2934 135.442C29.8626 132.916 31.5496 130.304 34.538 129.373C43.0373 126.734 55.9068 130.117 62.3067 122.073L77.538 94.1723C74.5496 89.136 71.9628 83.8642 69.1029 78.753C67.1053 75.1725 63.4153 67.1926 60.7804 64.6985C52.3293 56.6918 32.7761 65.8117 27.549 52.0409L-6.10352e-05 1.63512C-6.10352e-05 1.20695 0.813987 1.52272 1.14603 1.60836C5.90178 2.86609 11.2252 4.9641 15.9649 6.56437C21.2027 8.33055 29.3913 10.5195 34.0668 12.7139C36.5357 13.8699 37.5693 16.4817 38.8761 18.7189C46.0793 31.0126 52.2811 43.9592 59.329 56.3493C62.6334 59.7746 67.5445 58.8005 71.8289 59.2501C74.5817 59.5391 75.5403 59.8174 77.1845 62.1027L92.3568 88.7025H139.936V88.7078Z" fill="white"/>
</svg>
