<svg width="942" height="918" viewBox="0 0 942 918" fill="none" xmlns="http://www.w3.org/2000/svg">
<g style="mix-blend-mode:soft-light" clip-path="url(#clip0_14030_7351)">
<path d="M92.0307 616.946L51.7536 639.205C16.8216 560.483 4.30769 470.789 20.8147 379.65C42.7297 258.643 111.619 157.978 205.284 93.0261C298.919 28.1059 417.36 -1.10038 538.38 20.8122C586.078 29.4577 630.631 45.3969 671.065 67.2466L679.492 56.3689C637.296 33.2932 590.731 16.4737 540.801 7.41942C416.103 -15.1533 294.045 14.9332 197.518 81.8654C100.992 148.798 29.9957 252.544 7.42044 377.229C-9.65253 471.575 3.42731 564.381 39.8056 645.775L10.7533 661.809C16.067 673.944 16.4443 673.913 22.7327 685.545C61.5634 757.444 118.599 819.504 189.815 864.209L237.701 788.002C165.259 742.542 126.334 692.681 91.9992 616.915L92.0307 616.946Z" fill="white"/>
<path d="M712.82 824.942C619.154 889.894 500.713 919.1 379.693 897.188C331.995 888.542 287.442 872.603 247.008 850.753L238.581 861.631C280.776 884.707 327.342 901.526 377.272 910.581C501.97 933.153 624.028 903.067 720.555 836.135C797.21 783.004 857.736 706.64 890.718 615.029L877.387 611.885C845.253 700.132 786.74 773.698 712.788 824.974L712.82 824.942Z" fill="white"/>
<path d="M931.781 361.164C917.349 362.893 896.315 366.194 861.32 370.878C872.073 420.614 874.463 469.909 864.213 532.629C881.694 534.766 936.498 541.431 936.498 541.431C944.327 491.319 944.672 420.174 931.781 361.164Z" fill="white"/>
</g>
<defs>
<clipPath id="clip0_14030_7351">
<rect width="942" height="918" fill="white"/>
</clipPath>
</defs>
</svg>
