<svg width="1328" height="1080" viewBox="0 0 1328 1080" fill="none" xmlns="http://www.w3.org/2000/svg">
<g style="mix-blend-mode:soft-light">
<path d="M475.881 989.798L471.582 988.07L455.403 1027.78L459.703 1029.5L475.881 989.798Z" fill="white"/>
<path d="M522.734 1049.14L532.53 1007.39L528.009 1006.28L518.213 1048.03L522.734 1049.14Z" fill="white"/>
<path d="M518.124 1003.62L513.647 1002.38L502.344 1043.77L506.821 1044.97L518.124 1003.62Z" fill="white"/>
<path d="M701.367 1061.15L705.976 1060.66L699.859 1018.38L695.25 1018.87L701.367 1061.15Z" fill="white"/>
<path d="M434.082 971.762L429.916 969.679L409.393 1007.17L413.515 1009.25L434.082 971.762Z" fill="white"/>
<path d="M385.767 1012.62L389.712 1015.06L420.43 964.76L416.308 962.544L385.767 1012.62Z" fill="white"/>
<path d="M485.004 993.097L464.413 1048.04L468.771 1049.67L489.362 994.73L485.004 993.097Z" fill="white"/>
<path d="M461.52 984.037L457.265 982.176L439.8 1021.39L444.056 1023.26L461.52 984.037Z" fill="white"/>
<path d="M447.868 978.365L443.657 976.37L424.818 1014.7L428.985 1016.7L447.868 978.365Z" fill="white"/>
<path d="M503.851 999.459L499.418 998.085L486.254 1038.94L490.686 1040.32L503.851 999.459Z" fill="white"/>
<path d="M651.012 1063.98L655.622 1063.85L654.426 1021L649.771 1021.08L651.012 1063.98Z" fill="white"/>
<path d="M640.108 1021H635.454V1079.67H640.108V1021Z" fill="white"/>
<path d="M539.179 1052.86L547.955 1010.89L543.39 1010.01L534.613 1051.88L539.179 1052.86Z" fill="white"/>
<path d="M735.985 1056.4L740.551 1055.61L732.705 1013.64L728.139 1014.44L735.985 1056.4Z" fill="white"/>
<path d="M721.623 1074.97L726.189 1074.09L715.108 1016.48L710.498 1017.1L721.623 1074.97Z" fill="white"/>
<path d="M684.257 1062.74L688.867 1062.3L684.656 1019.8L680.046 1020.24L684.257 1062.74Z" fill="white"/>
<path d="M667.856 1063.58L672.511 1063.36L669.895 1020.51L665.241 1020.77L667.856 1063.58Z" fill="white"/>
<path d="M572.999 1058.66L579.426 1016.39L574.861 1015.59L568.345 1058L572.999 1058.66Z" fill="white"/>
<path d="M559.904 1013.09L549.159 1072.44L553.738 1073.27L564.484 1013.92L559.904 1013.09Z" fill="white"/>
<path d="M743.343 1011.6L752.696 1053.26L757.261 1052.28L747.864 1010.63L743.343 1011.6Z" fill="white"/>
<path d="M622.821 1063.49L624.816 1020.6L620.206 1020.38L618.167 1063.23L622.821 1063.49Z" fill="white"/>
<path d="M606.066 1062.39L610.011 1019.67L605.357 1019.27L601.456 1061.94L606.066 1062.39Z" fill="white"/>
<path d="M589.666 1060.79L595.162 1018.25L590.552 1017.72L585.1 1060.26L589.666 1060.79Z" fill="white"/>
<path d="M1117.76 438.208L1118.74 442.773L1160.76 435.106L1159.83 430.586L1117.76 438.208Z" fill="white"/>
<path d="M1086.78 854.46L1037.27 822.065L1034.56 825.832L1084.25 858.315L1086.78 854.46Z" fill="white"/>
<path d="M1052.03 872.851L1018.56 846.261L1015.59 849.807L1049.15 876.44L1052.03 872.851Z" fill="white"/>
<path d="M1062.71 859.379L1028.09 834.341L1025.21 837.975L1059.96 863.145L1062.71 859.379Z" fill="white"/>
<path d="M1046.27 809.258L1043.65 813.114L1079.55 836.202L1082.17 832.391L1046.27 809.258Z" fill="white"/>
<path d="M998.571 868.951L995.379 872.274L1026.89 901.123L1030.04 897.755L998.571 868.951Z" fill="white"/>
<path d="M1007.21 920.711L976.763 890.709L973.394 893.856L1003.8 923.857L1007.21 920.711Z" fill="white"/>
<path d="M1091.39 818.254L1054.69 796.363L1052.21 800.262L1088.91 822.154L1091.39 818.254Z" fill="white"/>
<path d="M1043.92 197.755L1040.9 194.254L1008.19 221.729L1011.2 225.23L1043.92 197.755Z" fill="white"/>
<path d="M1134.96 731.884L1094.67 717.571L1092.94 721.869L1133.23 736.183L1134.96 731.884Z" fill="white"/>
<path d="M1031.86 919.559L987.8 880.029L984.475 883.309L1028.76 922.971L1031.86 919.559Z" fill="white"/>
<path d="M1087.18 735.474L1126.85 751.294L1128.76 746.907L1089.04 731.264L1087.18 735.474Z" fill="white"/>
<path d="M1137.58 354.852L1135.98 350.509L1095.69 365.133L1097.37 369.476L1137.58 354.852Z" fill="white"/>
<path d="M1080.66 749.522L1119.8 766.627L1121.8 762.417L1082.66 745.356L1080.66 749.522Z" fill="white"/>
<path d="M1089.84 350.863L1091.65 355.118L1131.19 339.164L1129.46 334.866L1089.84 350.863Z" fill="white"/>
<path d="M1093.56 265.601L1091.12 261.657L1054.38 283.416L1056.82 287.36L1093.56 265.601Z" fill="white"/>
<path d="M1099.81 804.295L1062.36 783.777L1059.96 787.765L1097.46 808.283L1099.81 804.295Z" fill="white"/>
<path d="M1131.68 780.719L1076.98 756.967L1074.86 761.088L1129.82 784.974L1131.68 780.719Z" fill="white"/>
<path d="M1108.23 789.361L1069.85 770.527L1067.63 774.56L1105.97 793.438L1108.23 789.361Z" fill="white"/>
<path d="M1041.52 885.303L1008.94 857.473L1005.88 860.974L1038.46 888.804L1041.52 885.303Z" fill="white"/>
<path d="M838.688 1027.69L822.066 988.336L817.722 990.02L834.433 1029.46L838.688 1027.69Z" fill="white"/>
<path d="M822.864 1033.63L807.571 993.742L803.183 995.249L818.475 1035.13L822.864 1033.63Z" fill="white"/>
<path d="M811.915 1054.37L791.747 998.971L787.314 1000.39L807.527 1055.96L811.915 1054.37Z" fill="white"/>
<path d="M853.803 1021.48L835.762 982.752L831.463 984.524L849.548 1023.26L853.803 1021.48Z" fill="white"/>
<path d="M789.752 1044.22L777.075 1003.4L772.554 1004.64L785.275 1045.46L789.752 1044.22Z" fill="white"/>
<path d="M776.144 76.5087L780.577 77.7495L791.924 36.3592L787.403 35.1627L776.144 76.5087Z" fill="white"/>
<path d="M773.13 1048.56L762.27 1007.3L757.793 1008.45L768.653 1049.67L773.13 1048.56Z" fill="white"/>
<path d="M869.494 1014.39L849.725 976.503L845.514 978.453L865.283 1016.34L869.494 1014.39Z" fill="white"/>
<path d="M982.126 942.868L954.245 910.518L950.655 913.487L978.58 945.837L982.126 942.868Z" fill="white"/>
<path d="M966.789 977.257L928.935 930.061L925.167 932.809L963.155 980.137L966.789 977.257Z" fill="white"/>
<path d="M942.189 920.179L938.509 923.015L965.282 956.296L968.961 953.46L942.189 920.179Z" fill="white"/>
<path d="M790.417 80.6743L794.805 82.0924L807.97 41.1896L803.538 39.8158L790.417 80.6743Z" fill="white"/>
<path d="M941.568 973.357L916.435 938.88L912.535 941.406L937.712 976.016L941.568 973.357Z" fill="white"/>
<path d="M898.705 999.592L877.694 962.367L873.617 964.583L894.627 1001.81L898.705 999.592Z" fill="white"/>
<path d="M927.251 982.752L903.669 947.123L899.769 949.604L923.306 985.234L927.251 982.752Z" fill="white"/>
<path d="M892.987 1020.29L863.555 969.812L859.388 971.895L888.998 1022.64L892.987 1020.29Z" fill="white"/>
<path d="M913.377 991.216L891.125 954.789L887.092 957.138L909.343 993.565L913.377 991.216Z" fill="white"/>
<path d="M994.537 932.277L965.46 900.946L962.002 904.004L991.036 935.335L994.537 932.277Z" fill="white"/>
<path d="M1078.89 327.11L1117.9 309.695L1115.81 305.529L1076.81 322.945L1078.89 327.11Z" fill="white"/>
<path d="M1140.99 715.709L1100.08 703.257L1098.48 707.6L1139.39 720.141L1140.99 715.709Z" fill="white"/>
<path d="M1071.89 313.55L1110.05 294.406L1107.88 290.329L1069.67 309.429L1071.89 313.55Z" fill="white"/>
<path d="M1047.86 273.445L1099.86 242.557L1097.46 238.569L1045.29 269.589L1047.86 273.445Z" fill="white"/>
<path d="M1039.26 260.815L1074.86 237.328L1072.2 233.517L1036.51 257.093L1039.26 260.815Z" fill="white"/>
<path d="M1107.17 397.882L1148.35 386.537L1147.11 382.061L1105.75 393.45L1107.17 397.882Z" fill="white"/>
<path d="M1085.45 340.937L1140.55 319.4L1138.86 315.057L1083.5 336.727L1085.45 340.937Z" fill="white"/>
<path d="M1102.38 383.346L1143.12 370.185L1141.65 365.797L1100.87 379.003L1102.38 383.346Z" fill="white"/>
<path d="M1000.57 213.309L1045.87 176.35L1042.94 172.761L997.418 209.897L1000.57 213.309Z" fill="white"/>
<path d="M979.068 191.462L1009.52 161.505L1006.19 158.359L975.699 188.271L979.068 191.462Z" fill="white"/>
<path d="M968.208 181.447L997.596 150.426L994.183 147.28L964.75 178.345L968.208 181.447Z" fill="white"/>
<path d="M952.96 168.33L956.55 171.299L984.83 139.303L981.284 136.334L952.96 168.33Z" fill="white"/>
<path d="M943.563 160.84L981.86 116.038L978.314 113.024L939.928 157.96L943.563 160.84Z" fill="white"/>
<path d="M1030.22 248.628L1064.75 223.546L1061.96 219.824L1027.38 244.95L1030.22 248.628Z" fill="white"/>
<path d="M1021.13 237.018L1054.73 210.695L1051.81 207.105L1018.16 233.428L1021.13 237.018Z" fill="white"/>
<path d="M1111.47 412.594L1169.18 399.61L1168.16 395.09L1110.23 408.118L1111.47 412.594Z" fill="white"/>
<path d="M989.972 202.186L1021.8 173.647L1018.52 170.324L986.692 198.907L989.972 202.186Z" fill="white"/>
<path d="M1064.75 300.61L1102.2 280.136L1099.86 276.104L1062.4 296.622L1064.75 300.61Z" fill="white"/>
<path d="M1127.82 511.151L1128.05 515.76L1170.78 515.051L1170.55 510.265L1127.82 511.151Z" fill="white"/>
<path d="M1127.12 578.643L1169.62 583.562L1169.98 578.909L1127.51 574.034L1127.12 578.643Z" fill="white"/>
<path d="M1126.63 495.729L1127.03 500.338L1169.71 498.078L1169.31 493.469L1126.63 495.729Z" fill="white"/>
<path d="M1125.52 595.305L1167.9 600.845L1168.38 596.236L1126.01 590.652L1125.52 595.305Z" fill="white"/>
<path d="M1161.11 702.947L1105.09 688.677L1103.62 693.109L1159.96 707.422L1161.11 702.947Z" fill="white"/>
<path d="M1123.35 611.259L1165.46 618.349L1166.08 613.74L1123.92 606.65L1123.35 611.259Z" fill="white"/>
<path d="M1128.45 525.908L1128.58 530.561L1171.31 531.27L1171.22 526.661L1128.45 525.908Z" fill="white"/>
<path d="M1125.83 487.487L1185.36 484.429L1185.14 479.776L1125.3 482.878L1125.83 487.487Z" fill="white"/>
<path d="M1171.31 548.509L1171.35 543.855L1128.67 541.241L1128.62 545.894L1171.31 548.509Z" fill="white"/>
<path d="M1154.95 670.02L1156.15 665.5L1114.53 655.884L1113.33 660.36L1154.95 670.02Z" fill="white"/>
<path d="M1121.12 623.577L1120.29 628.155L1179.65 638.898L1180.48 634.319L1121.12 623.577Z" fill="white"/>
<path d="M1108.94 676.49L1150.39 686.816L1151.67 682.34L1110.18 672.059L1108.94 676.49Z" fill="white"/>
<path d="M1186.16 562.955L1128.36 556.618L1128.18 561.271L1185.67 567.564L1186.16 562.955Z" fill="white"/>
<path d="M1120.69 452.655L1121.53 457.219L1163.82 451.148L1162.98 446.584L1120.69 452.655Z" fill="white"/>
<path d="M1114.26 423.185L1115.37 427.706L1157.12 418.665L1156.02 414.145L1114.26 423.185Z" fill="white"/>
<path d="M1165.77 463.468L1123.21 467.722L1123.88 472.287L1166.43 468.077L1165.77 463.468Z" fill="white"/>
<path d="M1158.99 652.826L1160.01 648.306L1118.07 640.196L1117.01 644.717L1158.99 652.826Z" fill="white"/>
<path d="M287.098 159.112L317.505 189.113L320.919 185.967L290.467 155.966L287.098 159.112Z" fill="white"/>
<path d="M440.509 58.3395L458.55 97.0709L462.805 95.2539L444.765 56.5669L440.509 58.3395Z" fill="white"/>
<path d="M455.58 52.1354L472.202 91.4872L476.546 89.8032L459.88 50.3628L455.58 52.1354Z" fill="white"/>
<path d="M424.774 65.43L444.587 103.275L448.798 101.369L428.985 63.4801L424.774 65.43Z" fill="white"/>
<path d="M536.519 71.3682L525.659 30.1552L521.138 31.263L531.998 72.5203L536.519 71.3682Z" fill="white"/>
<path d="M471.449 46.1972L486.697 86.0808L491.085 84.5741L475.793 44.6462L471.449 46.1972Z" fill="white"/>
<path d="M482.397 25.4578L502.566 80.8516L506.954 79.3892L486.741 23.8624L482.397 25.4578Z" fill="white"/>
<path d="M401.281 59.4917L430.713 110.011L434.88 107.928L405.27 57.1873L401.281 59.4917Z" fill="white"/>
<path d="M352.744 106.421L377.833 140.943L381.734 138.417L356.556 103.807L352.744 106.421Z" fill="white"/>
<path d="M327.523 102.566L365.333 149.717L369.145 147.014L331.113 99.6855L327.523 102.566Z" fill="white"/>
<path d="M352.08 159.644L355.759 156.808L328.986 123.527L325.307 126.363L352.08 159.644Z" fill="white"/>
<path d="M395.607 80.2311L416.574 117.456L420.652 115.196L399.641 78.0154L395.607 80.2311Z" fill="white"/>
<path d="M367.062 97.0709L390.599 132.656L394.544 130.219L370.962 94.5892L367.062 97.0709Z" fill="white"/>
<path d="M380.936 88.5624L403.187 125.034L407.176 122.685L384.925 86.2581L380.936 88.5624Z" fill="white"/>
<path d="M242.107 279.56L205.406 257.669L202.923 261.568L239.625 283.46L242.107 279.56Z" fill="white"/>
<path d="M234.306 292.057L196.851 271.539L194.457 275.528L231.957 296.046L234.306 292.057Z" fill="white"/>
<path d="M312.142 136.954L340.023 169.26L343.613 166.335L315.732 133.985L312.142 136.954Z" fill="white"/>
<path d="M250.662 266.709L214.714 243.577L212.143 247.432L248.047 270.564L250.662 266.709Z" fill="white"/>
<path d="M226.682 305.263L188.296 286.385L186.08 290.462L224.421 309.296L226.682 305.263Z" fill="white"/>
<path d="M825.467 30.4617L804.885 85.4084L809.244 87.0403L829.826 32.0935L825.467 30.4617Z" fill="white"/>
<path d="M504.516 35.6059L517.237 76.42L521.714 75.1792L508.993 34.3651L504.516 35.6059Z" fill="white"/>
<path d="M259.749 253.991L210.06 221.508L207.489 225.363L257.001 257.757L259.749 253.991Z" fill="white"/>
<path d="M269.057 241.804L234.35 216.677L231.602 220.444L266.221 245.482L269.057 241.804Z" fill="white"/>
<path d="M309.793 196.514L265.511 156.808L262.453 160.264L306.513 199.793L309.793 196.514Z" fill="white"/>
<path d="M298.933 207.504L267.417 178.699L264.27 182.067L295.742 210.872L298.933 207.504Z" fill="white"/>
<path d="M288.428 218.849L255.848 191.019L252.79 194.52L285.325 222.305L288.428 218.849Z" fill="white"/>
<path d="M278.72 230.016L245.166 203.383L242.24 206.972L275.751 233.561L278.72 230.016Z" fill="white"/>
<path d="M219.413 318.735L164.449 294.849L162.631 299.103L217.285 322.856L219.413 318.735Z" fill="white"/>
<path d="M721.313 21.1592L714.842 63.4357L719.407 64.2334L725.923 21.8239L721.313 21.1592Z" fill="white"/>
<path d="M771.49 30.9971L761.694 72.7419L766.215 73.8498L776.011 32.105L771.49 30.9971Z" fill="white"/>
<path d="M957.525 117.81L953.802 115.063L927.605 148.787L931.373 151.534L957.525 117.81Z" fill="white"/>
<path d="M902.65 132.035L906.551 134.561L929.955 98.7991L926.054 96.3175L902.65 132.035Z" fill="white"/>
<path d="M742.237 6.93958L731.492 66.288L736.072 67.1167L746.817 7.76836L742.237 6.93958Z" fill="white"/>
<path d="M759.611 28.2496L755.045 27.2747L746.269 69.241L750.834 70.1273L759.611 28.2496Z" fill="white"/>
<path d="M915.061 140.056L918.873 142.715L943.518 107.884L939.706 105.269L915.061 140.056Z" fill="white"/>
<path d="M832.704 96.096L836.959 97.9572L854.468 58.7384L850.213 56.9214L832.704 96.096Z" fill="white"/>
<path d="M818.342 90.3793L822.686 92.0632L838.821 52.3569L834.521 50.6287L818.342 90.3793Z" fill="white"/>
<path d="M846.401 101.768L850.567 103.807L869.406 65.4742L865.239 63.4357L846.401 101.768Z" fill="white"/>
<path d="M873.794 115.373L877.916 117.589L908.501 67.5128L904.512 65.1198L873.794 115.373Z" fill="white"/>
<path d="M889.396 124.059L893.386 126.407L915.46 89.8919L911.471 87.4988L889.396 124.059Z" fill="white"/>
<path d="M860.142 108.371L864.308 110.454L884.875 73.0078L880.709 70.925L860.142 108.371Z" fill="white"/>
<path d="M704.602 19.032L699.15 61.5745L703.716 62.1063L709.212 19.5638L704.602 19.032Z" fill="white"/>
<path d="M572.689 4.85126L568.123 5.73756L579.16 63.3471L583.815 62.7267L572.689 4.85126Z" fill="white"/>
<path d="M610.056 17.0822L605.446 17.5254L609.657 60.0235L614.266 59.5804L610.056 17.0822Z" fill="white"/>
<path d="M592.946 18.6332L588.336 19.165L594.409 61.4416L599.063 60.9541L592.946 18.6332Z" fill="white"/>
<path d="M299.775 147.546L328.809 178.877L332.31 175.819L303.233 144.488L299.775 147.546Z" fill="white"/>
<path d="M558.283 23.4193L553.718 24.2169L561.608 66.1833L566.173 65.3856L558.283 23.4193Z" fill="white"/>
<path d="M550.969 68.2218L541.572 26.5656L537.051 27.5405L546.404 69.1967L550.969 68.2218Z" fill="white"/>
<path d="M688.202 17.4367L684.301 60.1564L688.911 60.5553L692.812 17.8799L688.202 17.4367Z" fill="white"/>
<path d="M626.412 16.2402L621.802 16.4618L624.417 59.3144L629.027 59.0485L626.412 16.2402Z" fill="white"/>
<path d="M671.491 16.3289L669.452 59.2258L674.106 59.4474L676.101 16.5947L671.491 16.3289Z" fill="white"/>
<path d="M658.858 0.153809H654.204V58.8269H658.858V0.153809Z" fill="white"/>
<path d="M643.3 15.8414L638.646 15.93L639.887 58.827L644.497 58.7384L643.3 15.8414Z" fill="white"/>
<path d="M135.814 554.979C136.523 555.111 137.144 554.979 137.72 554.624C138.296 554.27 138.651 553.738 138.784 553.117C138.917 552.408 138.784 551.788 138.341 551.256C137.942 550.68 137.366 550.37 136.656 550.237C135.947 550.104 135.282 550.237 134.75 550.636C134.218 551.034 133.864 551.566 133.731 552.275C133.598 552.94 133.731 553.516 134.13 554.048C134.529 554.58 135.061 554.934 135.77 555.067L135.814 554.979Z" fill="white"/>
<path d="M136.878 485.492L135.149 495.02L133.554 494.754L135.282 485.182L130.096 484.252L125.398 510.087L130.584 511.018L132.844 498.61L134.484 498.876L132.224 511.328L137.41 512.259L142.108 486.423L136.878 485.492Z" fill="white"/>
<path d="M185.636 419.685C186.257 418.976 186.744 417.779 187.055 416.184L187.409 414.278C187.72 412.55 187.409 411.22 186.479 410.334C185.548 409.448 184.129 408.827 182.268 408.473L176.195 407.365L171.496 433.201L176.683 434.131L178.854 422.166L179.608 422.299C179.874 422.343 180.096 422.654 180.229 423.141C180.362 423.673 180.362 424.16 180.273 424.648L179.253 430.365C178.943 432.181 178.81 433.6 178.987 434.574L184.085 435.505C183.952 434.53 184.041 433.068 184.395 431.118L185.37 425.8C185.636 424.293 185.548 423.141 185.016 422.388C184.528 421.634 183.553 421.058 182.135 420.66V420.571C183.863 420.704 185.06 420.394 185.681 419.685H185.636ZM181.558 417.469C181.514 417.823 181.292 418.178 181.026 418.488C180.716 418.798 180.45 418.931 180.229 418.887L179.475 418.754L180.76 411.664L181.514 411.796C181.869 411.841 182.09 412.062 182.223 412.373C182.356 412.683 182.401 413.037 182.312 413.48L181.603 417.513L181.558 417.469Z" fill="white"/>
<path d="M133.022 536.809L133.864 532.156C134.085 530.915 133.864 529.808 133.332 528.788C132.756 527.769 131.825 527.016 130.584 526.528C130.052 526.262 129.343 526.085 128.589 525.952C126.639 525.598 124.999 525.908 123.713 526.838C122.694 527.636 121.94 529.231 121.497 531.669L119.059 545.229C118.66 547.534 118.749 549.306 119.458 550.547C120.123 551.788 121.586 552.585 123.891 552.984C126.195 553.383 127.836 553.117 128.944 552.187C130.007 551.256 130.761 549.661 131.16 547.401L132.046 542.526C132.312 541.152 132.135 539.956 131.515 539.025C130.894 538.094 130.052 537.518 128.899 537.341C127.747 537.119 126.683 537.297 125.752 537.784L127.038 530.782C127.215 529.896 127.57 529.542 128.146 529.63C128.722 529.719 128.944 530.206 128.766 531.093L127.924 535.834L133.11 536.765L133.022 536.809ZM125.974 541.285C126.55 541.374 126.772 541.905 126.594 542.88L125.664 548.021C125.486 548.907 125.132 549.262 124.555 549.173C123.979 549.085 123.758 548.597 123.935 547.711L124.866 542.57C125.043 541.595 125.398 541.196 125.974 541.285Z" fill="white"/>
<path d="M170.965 518.33L181.47 497.059L182.09 493.646L169.191 491.342L168.571 494.887L176.239 496.305L165.557 517.355L170.965 518.33Z" fill="white"/>
<path d="M222.56 510.398L223.402 505.744C223.624 504.504 223.402 503.396 222.87 502.376C222.294 501.357 221.363 500.604 220.122 500.116C219.59 499.851 218.881 499.673 218.127 499.54C216.177 499.186 214.537 499.496 213.251 500.427C212.232 501.224 211.478 502.82 211.035 505.257L208.597 518.817C208.198 521.122 208.287 522.894 208.996 524.135C209.661 525.376 211.124 526.174 213.429 526.573C215.734 526.971 217.374 526.705 218.482 525.775C219.546 524.844 220.299 523.249 220.698 520.989L221.585 516.114C221.85 514.74 221.673 513.544 221.053 512.613C220.432 511.683 219.59 511.107 218.437 510.929C217.285 510.708 216.221 510.885 215.29 511.372L216.576 504.371C216.753 503.484 217.108 503.13 217.684 503.218C218.26 503.307 218.482 503.795 218.304 504.681L217.462 509.423L222.648 510.353L222.56 510.398ZM215.512 514.918C216.088 515.006 216.31 515.538 216.132 516.513L215.202 521.654C215.024 522.54 214.67 522.894 214.093 522.806C213.517 522.717 213.296 522.23 213.473 521.343L214.404 516.203C214.581 515.228 214.936 514.829 215.512 514.918Z" fill="white"/>
<path d="M153.677 531.093L151.372 536.632L150.309 540L150.131 539.956L150.264 536.543L150.353 530.517L144.99 529.542L145.433 542.482L140.025 555.333L144.812 556.175L147.56 548.42L148.624 545.539H148.713L148.447 548.508L148.27 556.795L153.766 557.815L153.323 543.146L158.287 531.935L153.677 531.093Z" fill="white"/>
<path d="M200.485 497.014L192.728 511.904L192.064 515.582L198.89 516.823L197.737 523.205L202.835 524.135L203.987 517.754L205.627 518.064L206.292 514.386L204.652 514.076L207.533 498.3L200.53 497.014H200.485ZM201.86 502.421C201.727 502.864 201.594 503.396 201.416 504.016C201.239 504.637 201.15 505.124 201.062 505.479L199.688 513.145L196.673 512.613L202.037 500.648H202.303C202.126 501.402 201.993 501.978 201.86 502.421Z" fill="white"/>
<path d="M174.732 554.137C175.486 553.162 176.594 551.921 178.057 550.414C179.519 548.907 180.716 547.489 181.603 546.248C182.489 545.008 183.065 543.59 183.331 542.039C183.686 540 183.464 538.405 182.622 537.252C181.78 536.056 180.45 535.303 178.589 534.992C177.968 534.904 177.303 534.815 176.505 534.859C174.776 534.859 173.491 535.391 172.693 536.499C171.895 537.607 171.319 539.069 171.009 540.931C170.964 541.374 170.876 541.861 170.832 542.393C170.743 542.925 170.699 543.324 170.654 543.59L175.752 544.52L176.594 539.778C176.683 539.38 176.815 539.069 177.037 538.892C177.259 538.715 177.48 538.626 177.702 538.671C178.278 538.759 178.5 539.247 178.323 540.133C177.968 542.127 177.613 543.412 177.214 543.988C176.815 544.564 175.752 545.761 174.023 547.622C172.25 549.439 170.92 550.902 170.078 552.054C169.191 553.206 168.66 554.535 168.349 556.086L167.551 560.385L179.652 562.556L180.317 558.878L173.225 557.593V557.416C173.491 556.219 173.934 555.156 174.688 554.181L174.732 554.137Z" fill="white"/>
<path d="M135.238 469.273L142.108 470.514L150.264 445.299L145.654 444.457L141.488 459.347C141.311 459.878 141.089 460.765 140.734 462.005C140.424 463.246 140.158 464.133 139.981 464.709H139.848C139.936 463.955 140.025 463.291 140.114 462.67C140.202 462.05 140.291 461.252 140.424 460.277L142.33 443.881L137.011 442.906L135.238 469.273Z" fill="white"/>
<path d="M164.582 559.765L169.28 533.929L165.291 533.22C164.892 534.106 164.271 534.726 163.473 535.125C162.676 535.524 161.789 535.613 160.814 535.436L160.238 538.582L163.03 539.069L159.44 558.878L164.582 559.809V559.765Z" fill="white"/>
<path d="M163.207 510.619L164.094 505.744C164.36 504.371 164.183 503.174 163.562 502.244C162.941 501.313 162.099 500.737 160.947 500.56C159.794 500.338 158.731 500.515 157.8 501.003L159.085 494.001C159.262 493.115 159.617 492.76 160.193 492.849C160.77 492.937 160.991 493.425 160.814 494.311L159.972 499.053L165.158 499.983L166 495.33C166.222 494.09 166 492.982 165.468 491.962C164.892 490.943 163.961 490.19 162.72 489.702C162.188 489.436 161.479 489.259 160.681 489.126C158.731 488.772 157.09 489.082 155.805 490.013C154.786 490.81 154.032 492.406 153.589 494.843L151.151 508.403C150.752 510.708 150.841 512.48 151.55 513.721C152.215 514.962 153.677 515.76 155.982 516.158C158.287 516.557 159.927 516.291 161.035 515.361C162.144 514.43 162.853 512.835 163.252 510.575L163.207 510.619ZM157.755 511.239C157.578 512.126 157.223 512.48 156.647 512.392C156.071 512.303 155.849 511.816 156.027 510.929L156.957 505.789C157.135 504.814 157.489 504.415 158.066 504.504C158.642 504.592 158.863 505.124 158.686 506.099L157.755 511.239Z" fill="white"/>
<path d="M142.706 500.69L142.074 504.178L148.529 505.347L149.161 501.858L142.706 500.69Z" fill="white"/>
<path d="M190.867 494.621L179.785 523.293L182.445 523.781L193.526 495.109L190.867 494.621Z" fill="white"/>
<path d="M192.773 437.677C195.078 438.075 196.718 437.81 197.826 436.879C198.89 435.948 199.643 434.353 200.042 432.093L202.48 418.532C202.923 416.184 202.79 414.411 202.125 413.17C201.461 411.929 199.954 411.088 197.649 410.689C195.432 410.29 193.748 410.556 192.64 411.531C191.532 412.461 190.778 414.101 190.335 416.405L187.897 429.966C187.498 432.226 187.631 433.998 188.34 435.239C189.049 436.48 190.512 437.322 192.773 437.721V437.677ZM195.876 415.475C195.964 414.987 196.097 414.633 196.363 414.455C196.585 414.234 196.806 414.145 197.072 414.19C197.649 414.278 197.87 414.81 197.693 415.785L194.634 432.713C194.457 433.6 194.058 433.954 193.438 433.821C192.906 433.733 192.728 433.245 192.861 432.359L195.92 415.43L195.876 415.475Z" fill="white"/>
<path d="M154.741 430.232L159.395 431.074L161.39 424.338L163.961 424.781L163.163 431.738L168.527 432.713L170.122 406.301L163.518 405.105L154.741 430.187V430.232ZM165.512 409.315H165.734L165.114 412.904L164.316 420.925L162.365 420.571L164.626 412.816L165.468 409.315H165.512Z" fill="white"/>
<path d="M163.917 467.899L170.743 469.14L169.59 475.522L174.688 476.452L175.84 470.071L177.48 470.381L178.145 466.703L176.505 466.393L179.386 450.617L172.383 449.331L164.626 464.221L163.961 467.899H163.917ZM173.89 452.921H174.156C173.979 453.674 173.846 454.25 173.713 454.693C173.58 455.137 173.447 455.668 173.269 456.289C173.092 456.909 173.003 457.397 172.915 457.751L171.541 465.418L168.527 464.886L173.89 452.921Z" fill="white"/>
<path d="M163.739 456.688C163.872 456.244 164.005 455.58 164.183 454.693L164.582 452.433C164.715 451.104 164.582 450.04 164.183 449.198C163.784 448.534 163.119 447.958 162.232 447.426C161.346 446.894 160.415 446.54 159.44 446.362C157.622 446.052 156.115 446.185 154.874 446.85C153.411 447.692 152.481 449.42 151.993 452.035C151.949 452.389 151.86 452.921 151.771 453.586C151.683 454.25 151.638 454.738 151.594 455.004L156.736 455.934L157.578 451.193C157.755 450.306 158.11 449.952 158.686 450.04C159.262 450.129 159.484 450.616 159.307 451.503L158.509 455.801C158.376 456.599 158.066 457.086 157.622 457.264C157.179 457.441 156.603 457.485 155.894 457.352C155.716 457.352 155.583 457.308 155.406 457.264C155.273 457.264 155.052 457.175 154.83 457.131L154.165 460.898L155.052 461.075C155.849 461.208 156.426 461.429 156.825 461.784C157.224 462.094 157.312 462.714 157.179 463.601L156.293 468.475C156.115 469.362 155.761 469.716 155.185 469.628C155.007 469.628 154.83 469.45 154.697 469.185C154.52 468.919 154.475 468.564 154.564 468.21L155.583 462.582L150.442 461.651L149.732 465.684C149.334 467.944 149.467 469.716 150.131 470.957C150.796 472.198 152.259 473.04 154.564 473.439C156.381 473.749 157.933 473.616 159.174 472.951C160.415 472.287 161.213 471.046 161.523 469.273L162.321 464.842C162.587 463.468 162.454 462.404 161.966 461.695C161.479 460.942 160.592 460.366 159.307 459.923C161.789 459.612 163.252 458.549 163.784 456.821L163.739 456.688Z" fill="white"/>
<path d="M151.062 402.889L144.99 401.781L140.291 427.617L146.009 428.636C148.225 429.035 149.954 428.946 151.107 428.326C152.259 427.706 153.013 426.332 153.411 424.205L154.121 420.261C154.564 417.779 153.5 416.139 150.885 415.297V415.209C152.17 415.209 153.278 414.899 154.121 414.145C155.007 413.392 155.539 412.506 155.716 411.398L156.204 408.783C156.78 405.548 155.096 403.554 151.062 402.845V402.889ZM148.27 423.806C148.092 424.825 147.649 425.268 146.94 425.135L146.186 425.002L147.693 416.583L148.447 416.716C148.713 416.76 148.935 416.937 149.068 417.292C149.245 417.646 149.289 418.001 149.2 418.399L148.225 423.806H148.27ZM150.397 411.841C150.22 412.904 149.777 413.348 149.068 413.259L148.314 413.126L149.599 406.036L150.264 406.169C151.018 406.301 151.328 406.878 151.151 407.852L150.442 411.885L150.397 411.841Z" fill="white"/>
</g>
</svg>
